<svg width="19" height="19" viewBox="0 0 19 19" fill="none" xmlns="http://www.w3.org/2000/svg">
<path d="M10.2002 2.00452C9.92633 1.48677 9.0745 1.48677 8.80058 2.00452L1.67558 15.4629C1.61144 15.5835 1.57965 15.7187 1.58329 15.8552C1.58693 15.9918 1.62589 16.1251 1.69637 16.2421C1.76684 16.3592 1.86643 16.456 1.98544 16.5231C2.10444 16.5902 2.2388 16.6253 2.37541 16.625H16.6254C16.7619 16.6253 16.8962 16.5902 17.0151 16.5231C17.134 16.4561 17.2336 16.3594 17.304 16.2424C17.3744 16.1254 17.4133 15.9922 17.4169 15.8557C17.4205 15.7192 17.3886 15.5842 17.3245 15.4636L10.2002 2.00452ZM10.2921 14.25H8.70875V12.6667H10.2921V14.25ZM8.70875 11.0834V7.12502H10.2921L10.2929 11.0834H8.70875Z" fill="#FF5A65"/>
</svg>
