<svg width="19" height="19" viewBox="0 0 19 19" fill="none" xmlns="http://www.w3.org/2000/svg">
<path d="M9.5 2.375C10.4357 2.375 11.3622 2.55929 12.2266 2.91736C13.0911 3.27542 13.8765 3.80025 14.5381 4.46186C15.1998 5.12348 15.7246 5.90894 16.0826 6.77338C16.4407 7.63783 16.625 8.56433 16.625 9.5C16.625 10.4357 16.4407 11.3622 16.0826 12.2266C15.7246 13.0911 15.1998 13.8765 14.5381 14.5381C13.8765 15.1998 13.0911 15.7246 12.2266 16.0826C11.3622 16.4407 10.4357 16.625 9.5 16.625C7.61033 16.625 5.79806 15.8743 4.46186 14.5381C3.12567 13.2019 2.375 11.3897 2.375 9.5C2.375 7.61033 3.12567 5.79806 4.46186 4.46186C5.79806 3.12567 7.61033 2.375 9.5 2.375ZM9.5 3.5625C7.92528 3.5625 6.41505 4.18806 5.30155 5.30155C4.18806 6.41505 3.5625 7.92528 3.5625 9.5C3.5625 11.0747 4.18806 12.5849 5.30155 13.6984C6.41505 14.8119 7.92528 15.4375 9.5 15.4375C11.0747 15.4375 12.5849 14.8119 13.6984 13.6984C14.8119 12.5849 15.4375 11.0747 15.4375 9.5C15.4375 7.92528 14.8119 6.41505 13.6984 5.30155C12.5849 4.18806 11.0747 3.5625 9.5 3.5625ZM9.5 11.875C9.73621 11.875 9.96274 11.9688 10.1298 12.1359C10.2968 12.3029 10.3906 12.5294 10.3906 12.7656C10.3906 13.0018 10.2968 13.2284 10.1298 13.3954C9.96274 13.5624 9.73621 13.6562 9.5 13.6562C9.26379 13.6562 9.03726 13.5624 8.87023 13.3954C8.70321 13.2284 8.60938 13.0018 8.60938 12.7656C8.60938 12.5294 8.70321 12.3029 8.87023 12.1359C9.03726 11.9688 9.26379 11.875 9.5 11.875ZM9.5 5.34375C9.63897 5.3437 9.77355 5.3924 9.88031 5.48137C9.98707 5.57033 10.0592 5.69393 10.0842 5.83062L10.0938 5.9375V10.0938C10.094 10.2421 10.0387 10.3852 9.93877 10.4949C9.83881 10.6045 9.70142 10.6728 9.55365 10.6862C9.40588 10.6996 9.25845 10.6572 9.14039 10.5673C9.02232 10.4774 8.94218 10.3466 8.91575 10.2006L8.90625 10.0938V5.9375C8.90625 5.78003 8.96881 5.62901 9.08016 5.51766C9.1915 5.40631 9.34253 5.34375 9.5 5.34375Z" fill="#FF5A65"/>
</svg>
