<svg width="109" height="45" viewBox="0 0 109 45" fill="none" xmlns="http://www.w3.org/2000/svg">
<path d="M22.4236 44.8472C34.8078 44.8472 44.8472 34.8078 44.8472 22.4236C44.8472 10.0394 34.8078 0 22.4236 0C10.0394 0 0 10.0394 0 22.4236C0 34.8078 10.0394 44.8472 22.4236 44.8472Z" fill="white"/>
<path d="M15.4504 24.7119L22.3804 5.75061L29.3103 24.7119L22.3479 20.6059L15.4504 24.7119Z" fill="#F26535"/>
<path d="M29.3103 27.9794L22.3804 38.9884L15.4504 27.9794L22.4128 32.0909L29.3103 27.9794Z" fill="#F26535"/>
<path d="M27.5034 19.4753L27.5359 19.5456C31.3119 20.1407 32.9619 21.3308 32.9619 22.8185C32.9619 23.8139 32.026 24.7119 30.2949 25.3665L29.7431 25.5613C27.9524 26.1347 25.4585 26.481 22.3749 26.481C19.2913 26.481 16.7974 26.1347 15.0014 25.5613L14.455 25.3719C12.7239 24.7174 11.788 23.8193 11.788 22.8239C11.788 21.3416 13.4433 20.1461 17.214 19.551L17.2464 19.4807C10.8737 20.2543 7.94702 22.3046 7.94702 24.6578C7.94702 27.5737 13.4109 30.1542 22.3695 30.1542C31.3281 30.1542 36.792 27.5737 36.792 24.6578C36.8028 22.2938 33.8761 20.2489 27.5034 19.4753Z" fill="#F26535"/>
<path d="M57.095 11.2361V28.1526C57.095 28.634 57.1978 29.0993 57.4087 29.5483C57.6143 29.9973 57.9227 30.3922 58.3284 30.7276C58.7341 31.0684 59.2426 31.3389 59.854 31.5499C60.4653 31.7555 61.1739 31.8637 61.9854 31.8637C62.7698 31.8637 63.4731 31.7609 64.0844 31.5499C64.6957 31.3443 65.2097 31.0684 65.6262 30.7276C66.0428 30.3868 66.3511 29.9973 66.5621 29.5483C66.7677 29.0993 66.8759 28.634 66.8759 28.1526V11.2361H73.1729V28.515C73.1729 29.8945 72.8862 31.1117 72.3181 32.172C71.7501 33.2324 70.9603 34.1304 69.9594 34.8607C68.9532 35.591 67.7739 36.1482 66.4215 36.5323C65.0636 36.9164 63.5921 37.1058 61.9962 37.1058C60.4004 37.1058 58.9181 36.9164 57.5548 36.5323C56.1861 36.1482 55.0068 35.591 54.0114 34.8607C53.016 34.1304 52.237 33.2324 51.6689 32.172C51.1009 31.1117 50.8142 29.8945 50.8142 28.515V11.2361H57.095Z" fill="#F26535"/>
<path d="M99.0587 16.6784H84.4036C83.749 16.6784 83.1756 16.8407 82.6833 17.1707C82.191 17.5007 81.9476 18.0795 81.9476 18.9072C81.9476 19.7349 82.2018 20.3246 82.7157 20.66C83.2297 21.0008 83.8139 21.1685 84.4685 21.1685H92.8267C93.5678 21.1685 94.3847 21.2713 95.2665 21.4823C96.1537 21.6933 96.976 22.0774 97.7388 22.6454C98.5015 23.2134 99.1399 24.0032 99.6376 25.0041C100.141 26.0103 100.395 27.3195 100.395 28.937C100.395 30.5545 100.141 31.8691 99.6376 32.8861C99.1345 33.9032 98.5015 34.693 97.7388 35.261C96.976 35.8291 96.1483 36.2186 95.2665 36.4241C94.3793 36.6297 93.5678 36.7379 92.8267 36.7379H76.5324V31.2957H91.4472C92.145 31.2957 92.7347 31.1334 93.2162 30.8034C93.6976 30.4734 93.9357 29.8512 93.9357 28.937C93.9357 28.039 93.6922 27.4277 93.1999 27.1031C92.7076 26.7731 92.1017 26.6108 91.3822 26.6108H83.0241C82.2559 26.6108 81.439 26.5134 80.5681 26.3132C79.6917 26.1185 78.8748 25.7398 78.1066 25.1826C77.3438 24.6254 76.7055 23.8464 76.2078 22.8401C75.7047 21.8339 75.4558 20.5248 75.4558 18.9072C75.4558 17.2897 75.7047 15.9859 76.2078 14.9905C76.7109 13.9951 77.3438 13.2215 78.1066 12.6643C78.8694 12.1071 79.6917 11.7284 80.5681 11.5337C81.439 11.3389 82.2613 11.2361 83.0241 11.2361H99.0533V16.6784H99.0587Z" fill="#F26535"/>
<path d="M105.94 7.74682C106.216 7.74682 106.508 7.78469 106.811 7.86583C107.119 7.94698 107.401 8.08763 107.655 8.2878C107.909 8.49337 108.12 8.76927 108.288 9.1209C108.45 9.47254 108.537 9.91614 108.537 10.4517C108.537 10.9927 108.455 11.4363 108.288 11.7825C108.125 12.1287 107.914 12.3992 107.655 12.5994C107.401 12.7996 107.119 12.9348 106.811 13.0105C106.503 13.0863 106.216 13.1242 105.94 13.1242H103.505C103.376 13.1242 103.251 13.1404 103.132 13.1674C103.013 13.1999 102.905 13.2486 102.808 13.3243C102.71 13.3946 102.629 13.492 102.575 13.611C102.515 13.73 102.488 13.8761 102.488 14.0438V14.7687H108.38V16.673H100.287V14.0438C100.287 13.6922 100.341 13.3514 100.444 13.016C100.546 12.6806 100.709 12.3884 100.93 12.1342C101.152 11.8799 101.433 11.6743 101.774 11.5174C102.115 11.366 102.521 11.2902 102.997 11.2902H105.226C105.507 11.2902 105.734 11.2253 105.902 11.0955C106.07 10.9656 106.156 10.7547 106.156 10.4625C106.156 10.1704 106.07 9.96483 105.902 9.835C105.734 9.71057 105.507 9.64565 105.226 9.64565H100.449V7.74141H105.94V7.74682Z" fill="#F26535"/>
</svg>
