<svg width="45" height="45" viewBox="0 0 45 45" fill="none" xmlns="http://www.w3.org/2000/svg">
<path d="M22.4236 44.8472C34.8078 44.8472 44.8472 34.8078 44.8472 22.4236C44.8472 10.0394 34.8078 0 22.4236 0C10.0394 0 0 10.0394 0 22.4236C0 34.8078 10.0394 44.8472 22.4236 44.8472Z" fill="white"/>
<path d="M15.4502 24.7119L22.3801 5.75061L29.3101 24.7119L22.3477 20.6059L15.4502 24.7119Z" fill="#F26535"/>
<path d="M29.3101 27.9794L22.3801 38.9884L15.4502 27.9794L22.4126 32.0909L29.3101 27.9794Z" fill="#F26535"/>
<path d="M27.5036 19.4753L27.5361 19.5456C31.3121 20.1407 32.9621 21.3308 32.9621 22.8185C32.9621 23.8139 32.0263 24.7119 30.2951 25.3665L29.7433 25.5613C27.9527 26.1347 25.4588 26.481 22.3752 26.481C19.2916 26.481 16.7977 26.1347 15.0016 25.5613L14.4552 25.3719C12.7241 24.7174 11.7882 23.8193 11.7882 22.8239C11.7882 21.3416 13.4436 20.1461 17.2142 19.551L17.2467 19.4807C10.8739 20.2543 7.94727 22.3046 7.94727 24.6578C7.94727 27.5737 13.4111 30.1542 22.3698 30.1542C31.3284 30.1542 36.7923 27.5737 36.7923 24.6578C36.8031 22.2938 33.8764 20.2489 27.5036 19.4753Z" fill="#F26535"/>
</svg>
